<svg xmlns="http://www.w3.org/2000/svg" viewBox="0 0 500 500"><g id="freepik--background-complete--inject-61"><rect x="437.01" y="188.01" width="1" height="6.15" style="fill:#c7c7c7"></rect><rect x="442.47" y="193.87" width="6.15" height="1" transform="translate(-6.94 371.98) rotate(-45)" style="fill:#c7c7c7"></rect><rect x="445.84" y="201.87" width="6.15" height="1" style="fill:#c7c7c7"></rect><rect x="445.14" y="207.34" width="1" height="6.15" transform="translate(-18.26 376.74) rotate(-45)" style="fill:#c7c7c7"></rect><rect x="437.13" y="210.71" width="1" height="6.15" style="fill:#c7c7c7"></rect><rect x="426.51" y="210.01" width="6.15" height="1" transform="translate(-23.03 365.42) rotate(-45)" style="fill:#c7c7c7"></rect><rect x="423.14" y="202" width="6.15" height="1" style="fill:#c7c7c7"></rect><rect x="429" y="191.38" width="1" height="6.15" transform="translate(-11.71 360.63) rotate(-45)" style="fill:#c7c7c7"></rect><rect x="61.87" y="322.06" width="1" height="6.15" style="fill:#c7c7c7"></rect><rect x="67.34" y="327.91" width="6.15" height="1" transform="translate(-211.6 145.98) rotate(-45)" style="fill:#c7c7c7"></rect><rect x="70.71" y="335.92" width="6.15" height="1" style="fill:#c7c7c7"></rect><rect x="70" y="341.39" width="1" height="6.15" transform="translate(-222.92 150.74) rotate(-45)" style="fill:#c7c7c7"></rect><rect x="61.99" y="344.76" width="1" height="6.15" style="fill:#c7c7c7"></rect><rect x="51.37" y="344.05" width="6.15" height="1" transform="translate(-227.69 139.42) rotate(-45)" style="fill:#c7c7c7"></rect><rect x="48.01" y="336.04" width="6.15" height="1" style="fill:#c7c7c7"></rect><rect x="53.86" y="325.42" width="1" height="6.15" transform="translate(-216.37 134.67) rotate(-45)" style="fill:#c7c7c7"></rect><rect x="172.1" y="60.88" width="1" height="6.15" style="fill:#c7c7c7"></rect><rect x="177.57" y="66.74" width="6.15" height="1" transform="translate(5.37 147.43) rotate(-45)" style="fill:#c7c7c7"></rect><rect x="180.94" y="74.74" width="6.15" height="1" style="fill:#c7c7c7"></rect><rect x="180.23" y="80.21" width="1" height="6.15" transform="translate(-5.96 152.18) rotate(-45)" style="fill:#c7c7c7"></rect><rect x="172.23" y="83.58" width="1" height="6.15" style="fill:#c7c7c7"></rect><rect x="161.61" y="82.88" width="6.15" height="1" transform="translate(-10.72 140.87) rotate(-45)" style="fill:#c7c7c7"></rect><rect x="158.24" y="74.87" width="6.15" height="1" style="fill:#c7c7c7"></rect><rect x="164.09" y="64.25" width="1" height="6.15" transform="translate(0.6 136.1) rotate(-45)" style="fill:#c7c7c7"></rect><rect x="212.91" y="40.48" width="1" height="3.4" style="fill:#c7c7c7"></rect><rect x="216.16" y="43.49" width="3.4" height="1" transform="translate(32.71 166.93) rotate(-45)" style="fill:#c7c7c7"></rect><rect x="218.02" y="47.91" width="3.4" height="1" style="fill:#c7c7c7"></rect><rect x="217.4" y="51.15" width="1" height="3.4" transform="translate(26.45 169.56) rotate(-45)" style="fill:#c7c7c7"></rect><rect x="212.98" y="53.01" width="1" height="3.4" style="fill:#c7c7c7"></rect><rect x="207.34" y="52.4" width="3.4" height="1" transform="translate(23.82 163.31) rotate(-45)" style="fill:#c7c7c7"></rect><rect x="205.48" y="47.98" width="3.4" height="1" style="fill:#c7c7c7"></rect><rect x="208.49" y="42.34" width="1" height="3.4" transform="translate(30.06 160.66) rotate(-44.99)" style="fill:#c7c7c7"></rect><rect x="385.38" y="357.96" width="1" height="3.4" style="fill:#c7c7c7"></rect><rect x="388.62" y="360.97" width="3.4" height="1" transform="translate(-141.28 381.87) rotate(-45)" style="fill:#c7c7c7"></rect><rect x="390.48" y="365.39" width="3.4" height="1" style="fill:#c7c7c7"></rect><rect x="389.87" y="368.64" width="1" height="3.4" transform="translate(-147.53 384.5) rotate(-45)" style="fill:#c7c7c7"></rect><rect x="385.45" y="370.5" width="1" height="3.4" style="fill:#c7c7c7"></rect><rect x="379.81" y="369.88" width="3.4" height="1" transform="translate(-150.16 378.25) rotate(-45)" style="fill:#c7c7c7"></rect><rect x="377.95" y="365.46" width="3.4" height="1" style="fill:#c7c7c7"></rect><rect x="380.96" y="359.82" width="1" height="3.4" transform="translate(-143.91 375.62) rotate(-45)" style="fill:#c7c7c7"></rect><rect x="94.72" y="275.36" width="1" height="3.4" style="fill:#c7c7c7"></rect><rect x="97.96" y="278.36" width="3.4" height="1" transform="translate(-168 152.15) rotate(-45)" style="fill:#c7c7c7"></rect><rect x="99.82" y="282.79" width="3.4" height="1" style="fill:#c7c7c7"></rect><rect x="99.21" y="286.03" width="1" height="3.4" transform="translate(-174.25 154.78) rotate(-45)" style="fill:#c7c7c7"></rect><rect x="94.79" y="287.89" width="1" height="3.4" style="fill:#c7c7c7"></rect><rect x="89.15" y="287.27" width="3.4" height="1" transform="translate(-176.88 148.52) rotate(-45)" style="fill:#c7c7c7"></rect><rect x="87.29" y="282.85" width="3.4" height="1" style="fill:#c7c7c7"></rect><rect x="90.3" y="277.22" width="1" height="3.4" transform="translate(-170.63 145.89) rotate(-45)" style="fill:#c7c7c7"></rect><rect x="391.65" y="107.91" width="1" height="3.4" style="fill:#c7c7c7"></rect><rect x="394.89" y="110.92" width="3.4" height="1" transform="translate(37.37 313.06) rotate(-45)" style="fill:#c7c7c7"></rect><rect x="396.75" y="115.34" width="3.4" height="1" style="fill:#c7c7c7"></rect><rect x="396.14" y="118.58" width="1" height="3.4" transform="translate(31.12 315.69) rotate(-45)" style="fill:#c7c7c7"></rect><rect x="391.72" y="120.44" width="1" height="3.4" style="fill:#c7c7c7"></rect><rect x="386.08" y="119.83" width="3.4" height="1" transform="translate(28.49 309.44) rotate(-45)" style="fill:#c7c7c7"></rect><rect x="384.22" y="115.41" width="3.4" height="1" style="fill:#c7c7c7"></rect><rect x="387.23" y="109.77" width="1" height="3.4" transform="translate(34.74 306.81) rotate(-45)" style="fill:#c7c7c7"></rect><path d="M339.68,446.42c8.39,15.29,22.11,24,41.36,21.13s29.88-15.11,33.5-32.17-3.69-35.75-17-41.71c-9.46-4.23-20.88.4-27.19,1.33s-18.58-.21-26.41,6.57C332.89,411.12,331.29,431.14,339.68,446.42Z" style="fill:#ebebeb"></path><path d="M334.7,431a43.42,43.42,0,0,0,5,15.44c8.39,15.29,22.11,24,41.36,21.13s29.88-15.11,33.5-32.17a43.65,43.65,0,0,0,.3-16.22,38.85,38.85,0,0,1-.71,13.48c-3.76,16.1-14.83,25.37-34.08,28.21s-32.52-2.84-40.78-17.17A38.85,38.85,0,0,1,334.7,431Z" style="opacity:0.1"></path><path d="M334.87,432.19c-1.12-10.65,2.12-21.19,9.52-27.33,7.88-6.52,19.83-5.73,26.15-6.67S388.6,393,398,397c8.84,3.74,15,12.9,17,23.41-1.66-11.88-8.08-22.47-17.5-26.69s-20.88.4-27.19,1.33-18.58-.21-26.41,6.57S333,420.33,334.87,432.19Z" style="fill:#fff;opacity:0.30000000000000004"></path><path d="M352.63,407.6c5.31,7.53,1.29,35.86-3.56,35.35s-11-13.52-11.36-19.84C337.27,414.52,349.18,402.71,352.63,407.6Z" style="fill:#fff;opacity:0.2"></path><path d="M349.73,409.3c5,5,2.07,16.95-1.43,18.35-3.27,1.3-7.51-.59-8.59-5.36C338.25,415.81,346.46,406,349.73,409.3Z" style="fill:#fff;opacity:0.5"></path><path d="M350.31,430.21c2.2,1.92-.29,6.66-2.21,7.25s-4.56-1.53-4.74-3.4C343.12,431.52,348.88,429,350.31,430.21Z" style="fill:#fff;opacity:0.5"></path><path d="M407.57,418.53c-6.93.72-26-13.32-23-17s13.3-2.49,16.76.27C406.09,405.54,412.07,418.07,407.57,418.53Z" style="fill:#fff;opacity:0.2"></path><path d="M391.16,395c-7.14.53-13.71,4.46-20.67,5.67-5,.54-10.94-.22-16,.19a23.2,23.2,0,0,0-5.43.92c5.48.18,10.72,1.39,16.18,1.75,9.54,1.17,17.56-5.13,26-8.53Z" style="fill:#fff;opacity:0.30000000000000004"></path><path d="M317.62,262.74s32.83,54.73,35.72,79.59c2.4,20.69,4.42,31.91,7.77,41.21a86.9,86.9,0,0,0,8.15,16.86,26.54,26.54,0,0,0,5-.66s-4.23-3.59-8.94-16.88c-3.31-9.36-4.55-22-7.16-42.21-3.24-25.06-31.86-77.62-32.49-78.31S317.59,261.81,317.62,262.74Z" style="fill:#c7c7c7"></path><path d="M352.25,402.05c6.36-1.93,13.22-.83,19.61-2.3,6.44-1.18,12.68-4.3,19.35-4.13-6.61.94-12.53,4.22-19.07,5.47-6.61,1.46-13.26.11-19.89,1Z" style="fill:#a6a6a6"></path><path d="M347.43,283.52c2.8,0,13.5-6.82,27.82-3s30.25,16.83,34.53,26.16,4.79,30.27,5.57,31.88,1.37,6.06.8,6.26-3-.84-10.66-1.89-22.38-.72-29.31-5.66-19.11-16.37-22.06-25.63-5.87-22.15-7.33-24.51a16.56,16.56,0,0,0-2.73-3.49A19.44,19.44,0,0,1,347.43,283.52Z" style="fill:#dbdbdb"></path><path d="M344.06,283.65a16.56,16.56,0,0,1,2.73,3.49c1.46,2.36,4.37,15.26,7.33,24.51s15.13,20.69,22.06,25.63,21.65,4.61,29.31,5.66,10.1,2.08,10.67,1.89,0-4.66-.81-6.26-1.3-22.55-5.57-31.88c-1.67-3.63-5.1-7.82-9.52-11.81a30.25,30.25,0,0,1,5.56,7.7c3.85,8.39,4.31,27.22,5,28.67s1.23,5.45.72,5.63-2.71-.76-9.59-1.7-20.12-.65-26.35-5.09-17.19-14.72-19.85-23-5.27-19.92-6.59-22.05a18.12,18.12,0,0,0-1.08-1.57,2.87,2.87,0,0,1-.66.09A19.44,19.44,0,0,0,344.06,283.65Z" style="opacity:0.1"></path><path d="M361.42,292.9a146.79,146.79,0,0,0,.66,17.54,83.42,83.42,0,0,0,3.19,17.24c-.15-.71-.3-1.43-.46-2.14-2.08-10.74-2.69-21.74-3.39-32.64Z" style="fill:#c7c7c7"></path><path d="M374.31,303.39a254.74,254.74,0,0,0,3.87,27.36,45.32,45.32,0,0,0,2.5,8.87,61.06,61.06,0,0,1-2-9c-1.5-8.72-2.88-18.54-4.36-27.27Z" style="fill:#c7c7c7"></path><path d="M375.83,337c-1.19-7.22-2.18-15.19-3.47-22.39.17,3.78.6,7.54,1.14,11.29a78.2,78.2,0,0,0,2.33,11.1Z" style="fill:#c7c7c7"></path><path d="M383.25,283.51a57.57,57.57,0,0,0-29.5,4,85.46,85.46,0,0,1,29.5-4Z" style="fill:#c7c7c7"></path><path d="M405.9,300.74c-11-4.08-25.46-3.95-37.09-2.68,5.43-.23,10.91-.27,16.34-.11,7,.27,14,.84,20.75,2.79Z" style="fill:#c7c7c7"></path><path d="M413.3,321.09a43.23,43.23,0,0,0-10.49-1.72,67.38,67.38,0,0,0-10.63.2c7,.28,14.24.38,21.12,1.52Z" style="fill:#c7c7c7"></path><path d="M412.61,316.81a60.93,60.93,0,0,0-16.56-1c5.42.48,11.12.75,16.56,1Z" style="fill:#c7c7c7"></path><path d="M401.29,342.52c-1.38-5.38-2.61-11.33-4.09-16.68a64.23,64.23,0,0,0,1.46,8.48,46.09,46.09,0,0,0,2.63,8.2Z" style="fill:#c7c7c7"></path><path d="M377.73,298.93a20.71,20.71,0,0,0-8,.27,28.68,28.68,0,0,0,8-.27Z" style="fill:#c7c7c7"></path><path d="M391.93,312.1a20.7,20.7,0,0,0-8,.27,29.07,29.07,0,0,0,8-.27Z" style="fill:#c7c7c7"></path><path d="M359.91,291.63a43.41,43.41,0,0,0,.16,11.33,55.72,55.72,0,0,0-.16-11.33Z" style="fill:#c7c7c7"></path><path d="M366.12,286.1a27.36,27.36,0,0,0-11.79,2.8c3.87-.92,7.89-1.93,11.79-2.8Z" style="fill:#c7c7c7"></path><path d="M328.66,272.33s-.22,5,.6,5.39,6.55,3.23,17.28,8.82,26.82,16.93,35.38,25.64c12.45,12.64,30.36,27.35,30.36,27.35s-20.77-19.64-28-27.3a165.34,165.34,0,0,0-36.16-28.85C338.68,277.89,328.66,272.33,328.66,272.33Z" style="fill:#c7c7c7"></path></g><g id="freepik--Drink--inject-61"><rect x="269.84" y="26.65" width="18.31" height="418.12" transform="translate(73.86 -66.47) rotate(15.64)" style="fill:#FFC727"></rect><polygon points="342.36 41.27 322.46 48.44 318.21 63.63 338.11 56.46 342.36 41.27" style="fill:#fff"></polygon><polygon points="333.04 74.59 313.13 81.76 308.88 96.95 328.78 89.78 333.04 74.59" style="fill:#fff"></polygon><polygon points="323.71 107.91 303.81 115.08 299.56 130.27 319.46 123.1 323.71 107.91" style="fill:#fff"></polygon><polygon points="314.38 141.23 294.48 148.4 290.23 163.59 310.13 156.42 314.38 141.23" style="fill:#fff"></polygon><polygon points="305.06 174.55 285.15 181.72 280.9 196.91 300.81 189.74 305.06 174.55" style="fill:#fff"></polygon><polygon points="295.73 207.87 275.83 215.04 271.58 230.23 291.48 223.06 295.73 207.87" style="fill:#fff"></polygon><polygon points="286.41 241.19 266.5 248.36 262.25 263.55 282.15 256.37 286.41 241.19" style="fill:#fff"></polygon><polygon points="277.08 274.5 257.18 281.68 252.93 296.86 272.83 289.69 277.08 274.5" style="fill:#fff"></polygon><polygon points="267.75 307.82 247.85 315 243.6 330.18 263.5 323.01 267.75 307.82" style="fill:#fff"></polygon><polygon points="258.43 341.14 238.52 348.31 234.27 363.5 254.18 356.33 258.43 341.14" style="fill:#fff"></polygon><polygon points="249.1 374.46 229.2 381.63 224.95 396.82 244.85 389.65 249.1 374.46" style="fill:#fff"></polygon><polygon points="239.78 407.78 219.87 414.95 215.62 430.14 235.53 422.97 239.78 407.78" style="fill:#fff"></polygon><rect x="270.04" y="25.14" width="7.16" height="418.12" transform="translate(73.26 -65.09) rotate(15.64)" style="fill:#fff;opacity:0.4"></rect><g style="opacity:0.30000000000000004"><polygon points="384.01 75.25 346.6 468.07 153.4 468.07 115.99 75.25 384.01 75.25" style="fill:#ebebeb"></polygon><path d="M346.83,468.32H153.17l0-.23L115.72,75H384.28l0,.28Zm-193.2-.5H346.37L383.73,75.49H116.27Z" style="fill:#263238"></path></g><g style="opacity:0.30000000000000004"><polygon points="368.11 75.25 333.28 440.99 166.72 440.99 131.89 75.25 368.11 75.25" style="fill:#dbdbdb"></polygon><path d="M333.51,441.24h-167l0-.23L131.62,75H368.38l0,.28ZM167,440.74h166.1L367.83,75.49H132.17Z" style="fill:#263238"></path></g><path d="M224.3,350.13c.84,15.06,8.3,27,24.38,31.93s29-.64,38.15-12.6,10.47-29.27,2.3-38.89c-5.8-6.84-16.44-7.48-21.71-9.11s-14.42-7.1-23.06-4.73C232.18,320.06,223.46,335.07,224.3,350.13Z" style="fill:#FFC727"></path><path d="M286.83,369.46c-9.2,12-22.07,17.57-38.15,12.6s-23.54-16.86-24.38-31.93a37.06,37.06,0,0,1,8.34-25.58,32.56,32.56,0,0,0-6.29,21.06c.74,13.12,7.24,23.48,21.24,27.81s25.22-.55,33.22-11,9.12-25.5,2-33.87c-2.83-3.33-7-5-10.86-6,5.52,1.19,12.75,2.8,17.17,8C297.3,340.19,296,357.51,286.83,369.46Z" style="opacity:0.1"></path><path d="M271.91,322.54c-1.49-.32-2.85-.61-4-.93C269.17,321.88,270.52,322.17,271.91,322.54Z" style="fill:#FFC727"></path><path d="M225.86,337.23c3.1-8.73,9.57-15.74,17.63-17.76,8.58-2.15,17.62,2.92,22.9,4.56s16,2.67,21.91,9.29c5.51,6.22,6.89,15.66,4.52,24.61,3.14-9.89,2.09-20.55-3.69-27.36s-16.44-7.48-21.71-9.11-14.42-7.1-23.06-4.73S228.85,327.29,225.86,337.23Z" style="fill:#fff;opacity:0.30000000000000004"></path><path d="M248.42,322.68c2,7.71-9.94,29.39-13.71,27.5s-4.79-14.32-3.11-19.53C233.88,323.56,247.13,317.66,248.42,322.68Z" style="fill:#fff;opacity:0.2"></path><path d="M287.68,353.72c-5.67-2-15.29-20.09-11.55-21.85s11.3,3,13,6.47C291.38,343,291.37,355,287.68,353.72Z" style="fill:#fff;opacity:0.2"></path><path d="M247.1,323.45c1.74,5.62-5,13.19-8.14,12.86-2.88-.31-5.26-3.33-4.21-7.23C236.18,323.77,246,319.79,247.1,323.45Z" style="fill:#fff;opacity:0.5"></path><path d="M239.45,339c.87,2.26-2.78,4.77-4.42,4.46s-2.74-2.89-2.15-4.32C233.68,337.15,238.88,337.5,239.45,339Z" style="fill:#fff;opacity:0.5"></path><path d="M250,372.75c9.65-.23,19.15-3.28,26.37-9.75a59.34,59.34,0,0,0,6.61-7.14c-4.6,12.72-19.88,20.59-33,16.89Z" style="opacity:0.1"></path><path d="M243.26,191.7c9.78,11.49,22.91,16.44,38.72,10.67s22.68-18,22.76-33.11-9.38-29.64-21.7-32.36c-8.76-1.93-17.61,4-22.8,5.89S244.46,145.85,239,153C231.33,163,233.47,180.22,243.26,191.7Z" style="fill:#FFC727"></path><path d="M304.74,169.26c-.08,15.09-6.94,27.34-22.76,33.11s-28.94.82-38.72-10.67a37,37,0,0,1-8.84-25.42,32.51,32.51,0,0,0,7.74,20.58c8.52,10,20,14.32,33.73,9.29s19.74-15.69,19.82-28.83-8.17-25.82-18.9-28.19c-4.26-.94-8.55.26-12.29,1.78,5.12-2.39,11.85-5.48,18.52-4C295.36,139.62,304.83,154.18,304.74,169.26Z" style="opacity:0.1"></path><path d="M264.47,140.93c-1.38.65-2.64,1.24-3.75,1.67C261.88,142.06,263.14,141.47,264.47,140.93Z" style="fill:#FFC727"></path><path d="M236.69,180.49c-2.81-8.83-1.91-18.33,3.29-24.81,5.53-6.91,15.8-8.33,21-10.23s14.39-7.57,23.07-5.85c8.15,1.61,15,8.3,18.49,16.86-3.48-9.78-10.77-17.63-19.49-19.56s-17.61,4-22.8,5.89S244.46,145.85,239,153,233.06,170.77,236.69,180.49Z" style="fill:#fff;opacity:0.30000000000000004"></path><path d="M245.85,155.25c6.25,4.93,9.87,29.42,5.72,30.19s-12.47-8.51-14.29-13.66C234.81,164.76,241.79,152,245.85,155.25Z" style="fill:#fff;opacity:0.2"></path><path d="M295.89,156.21c-5.74,1.81-24.32-6.74-22.42-10.4s10.82-4.44,14.25-2.71C292.37,145.47,299.62,155,295.89,156.21Z" style="fill:#fff;opacity:0.2"></path><path d="M277.89,139.18c-6,1.69-10.84,6.17-16.53,8.41-4.16,1.35-9.3,1.73-13.54,3a21,21,0,0,0-4.44,1.73c4.67-.79,9.32-.69,14-1.34,8.29-.68,14-7.42,20.5-11.76Z" style="fill:#fff;opacity:0.30000000000000004"></path><path d="M245.26,156.66c4.79,3.42,4,13.55,1.31,15.16-2.49,1.51-6.21.54-7.73-3.2C236.77,163.52,242.15,154.44,245.26,156.66Z" style="fill:#fff;opacity:0.5"></path><path d="M248.56,173.65c2.06,1.27.67,5.47-.82,6.21s-3.93-.63-4.33-2.13C242.87,175.69,247.22,172.82,248.56,173.65Z" style="fill:#fff;opacity:0.5"></path><path d="M277.39,194.17c7.54-6,13.26-14.19,15.09-23.72a58.91,58.91,0,0,0,.95-9.67c4,12.9-3.37,28.41-16,33.39Z" style="opacity:0.1"></path><path d="M270.62,413.14c9.79,11.48,22.92,16.44,38.73,10.67s22.67-18,22.75-33.11-9.37-29.64-21.69-32.36c-8.76-1.94-17.62,4-22.8,5.88s-15.78,3.07-21.23,10.18C258.7,384.42,260.84,401.66,270.62,413.14Z" style="fill:#FFC727"></path><path d="M332.1,390.7c-.08,15.08-6.94,27.34-22.75,33.11s-28.94.81-38.73-10.67a37.05,37.05,0,0,1-8.83-25.42,32.46,32.46,0,0,0,7.73,20.58c8.53,10,20,14.31,33.74,9.29s19.74-15.7,19.81-28.84-8.16-25.82-18.9-28.18c-4.26-.94-8.54.25-12.28,1.77,5.11-2.39,11.84-5.48,18.52-4C322.73,361.06,332.19,375.62,332.1,390.7Z" style="opacity:0.1"></path><path d="M291.84,362.37c-1.38.64-2.64,1.23-3.76,1.67C289.25,363.49,290.51,362.91,291.84,362.37Z" style="fill:#FFC727"></path><path d="M264.06,401.92c-2.81-8.82-1.91-18.32,3.29-24.81,5.53-6.9,15.79-8.33,21-10.22s14.39-7.57,23.07-5.86c8.15,1.62,15,8.3,18.49,16.86-3.48-9.77-10.77-17.63-19.49-19.55s-17.62,4-22.8,5.88-15.78,3.07-21.23,10.18S260.43,392.2,264.06,401.92Z" style="fill:#fff;opacity:0.30000000000000004"></path><path d="M273.22,376.68c6.25,4.94,9.86,29.42,5.72,30.19s-12.48-8.5-14.3-13.66C262.17,386.19,269.15,373.47,273.22,376.68Z" style="fill:#fff;opacity:0.2"></path><path d="M323.25,377.64c-5.74,1.82-24.32-6.74-22.41-10.4s10.82-4.44,14.24-2.7C319.74,366.9,327,376.46,323.25,377.64Z" style="fill:#fff;opacity:0.2"></path><path d="M305.25,360.62c-6,1.69-10.84,6.17-16.52,8.41-4.17,1.34-9.31,1.73-13.55,3a20.34,20.34,0,0,0-4.44,1.73c4.68-.8,9.33-.7,14-1.35,8.29-.67,14-7.41,20.49-11.75Z" style="fill:#fff;opacity:0.30000000000000004"></path><path d="M272.63,378.1c4.79,3.41,4,13.55,1.31,15.16-2.49,1.5-6.21.53-7.73-3.21C264.13,385,269.52,375.87,272.63,378.1Z" style="fill:#fff;opacity:0.5"></path><path d="M275.92,395.08c2.06,1.27.67,5.47-.82,6.22s-3.93-.64-4.33-2.14C270.23,397.12,274.59,394.26,275.92,395.08Z" style="fill:#fff;opacity:0.5"></path><path d="M304.76,415.61c7.53-6,13.25-14.2,15.09-23.73a57.73,57.73,0,0,0,.94-9.67c4,12.91-3.37,28.41-16,33.4Z" style="opacity:0.1"></path><path d="M168,226.22c.85,15.06,8.3,27,24.38,31.93s29-.64,38.15-12.6,10.47-29.27,2.3-38.89c-5.8-6.84-16.43-7.48-21.71-9.11s-14.42-7.1-23.06-4.73C175.83,196.15,167.11,211.16,168,226.22Z" style="fill:#FFC727"></path><path d="M230.48,245.55c-9.19,12-22.07,17.57-38.15,12.6S168.79,241.28,168,226.22a37,37,0,0,1,8.35-25.58A32.45,32.45,0,0,0,170,221.7c.73,13.12,7.23,23.48,21.23,27.81s25.22-.55,33.23-11,9.12-25.5,2-33.87c-2.82-3.33-7-5-10.86-6,5.53,1.2,12.75,2.81,17.18,8C241,216.28,239.68,233.6,230.48,245.55Z" style="opacity:0.1"></path><path d="M215.56,198.63c-1.49-.32-2.85-.61-4-.94C212.82,198,214.17,198.26,215.56,198.63Z" style="fill:#FFC727"></path><path d="M169.51,213.32c3.1-8.73,9.57-15.74,17.63-17.76,8.58-2.15,17.62,2.92,22.9,4.56s16,2.67,21.91,9.29c5.51,6.22,6.89,15.66,4.52,24.61,3.14-9.89,2.09-20.55-3.69-27.36s-16.43-7.48-21.71-9.11-14.42-7.1-23.06-4.73S172.5,203.38,169.51,213.32Z" style="fill:#fff;opacity:0.30000000000000004"></path><path d="M192.07,198.77c2,7.71-9.94,29.39-13.71,27.49s-4.78-14.31-3.11-19.52C177.53,199.65,190.78,193.75,192.07,198.77Z" style="fill:#fff;opacity:0.2"></path><path d="M231.33,229.81c-5.67-2-15.28-20.09-11.55-21.85s11.3,3,13,6.47C235,219.12,235,231.12,231.33,229.81Z" style="fill:#fff;opacity:0.2"></path><path d="M190.75,199.54c1.74,5.62-5,13.19-8.13,12.86-2.89-.31-5.27-3.33-4.22-7.23C179.84,199.86,189.62,195.88,190.75,199.54Z" style="fill:#fff;opacity:0.5"></path><path d="M183.1,215.05c.87,2.26-2.78,4.77-4.42,4.46s-2.74-2.89-2.15-4.32C177.33,213.24,182.53,213.59,183.1,215.05Z" style="fill:#fff;opacity:0.5"></path><path d="M193.64,248.84c9.64-.23,19.14-3.28,26.37-9.76a58.43,58.43,0,0,0,6.6-7.13c-4.59,12.72-19.87,20.59-33,16.89Z" style="opacity:0.1"></path><path d="M360.46,155.59,333.28,441H166.72L138.05,139.91c60.75-4.42,107.72,14.16,145.68,18.58C306.23,161.13,336.56,158.61,360.46,155.59Z" style="fill:#FFC727;opacity:0.6000000000000001"></path><path d="M227.5,354.51c3.87,0,3.87-6,0-6S223.63,354.51,227.5,354.51Z" style="fill:#FFC727"></path><path d="M324.75,182.51a7.69,7.69,0,0,0,.47.9,1.36,1.36,0,0,0,2.33,0,7.62,7.62,0,0,0,.46-.9C329.72,179,323.05,179,324.75,182.51Z" style="fill:#FFC727"></path><path d="M201.67,336.19c3,0,3-4.59,0-4.59S198.71,336.19,201.67,336.19Z" style="fill:#FFC727"></path><path d="M303.74,402.7c2.95,0,3-4.59,0-4.59S300.78,402.7,303.74,402.7Z" style="fill:#FFC727"></path><path d="M335.25,317.46c3,0,3-4.59,0-4.59S332.3,317.46,335.25,317.46Z" style="fill:#FFC727"></path><path d="M165.68,230.69c2.95,0,3-4.59,0-4.59S162.72,230.69,165.68,230.69Z" style="fill:#FFC727"></path><path d="M273.64,259c3,0,3-4.59,0-4.59S270.69,259,273.64,259Z" style="fill:#FFC727"></path><path d="M179.93,150.94c2.95,0,3-4.59,0-4.59S177,150.94,179.93,150.94Z" style="fill:#FFC727"></path><path d="M329.53,338a3.21,3.21,0,0,0,4.49,0,4.43,4.43,0,0,0,1.09-4.34c-.61-3.3-6.06-3.3-6.67,0A4.45,4.45,0,0,0,329.53,338Z" style="fill:#FFC727"></path><path d="M190,418a3.18,3.18,0,0,0,4.48,0,4.41,4.41,0,0,0,1.09-4.34c-.6-3.3-6.06-3.3-6.67,0A4.45,4.45,0,0,0,190,418Z" style="fill:#FFC727"></path><path d="M216.48,186.54a3.19,3.19,0,0,0,4.49,0,4.43,4.43,0,0,0,1.09-4.34c-.61-3.3-6.06-3.3-6.67,0A4.44,4.44,0,0,0,216.48,186.54Z" style="fill:#FFC727"></path><path d="M157.82,243.5a3.21,3.21,0,0,0,4.49,0,4.43,4.43,0,0,0,1.09-4.34c-.61-3.3-6.06-3.3-6.67,0A4.45,4.45,0,0,0,157.82,243.5Z" style="fill:#FFC727"></path><path d="M265.69,218.57c.67-.16,24.45,7.09,26.09,7.29s18.4,4.93,18.71,5,7.08,12.32,7.69,13.14,9,15.41,9.25,16.64S317.46,280,316,284.1s-13.36,25.48-14.69,26-21.68-6.06-24.55-6.78-22.5-4.21-23.63-5.13-6.57-16.15-8-19.54-7.73-13.95-6.71-16,8.66-15.45,11.12-18.64S264,219,265.69,218.57Z" style="fill:#fff;opacity:0.2"></path><path d="M245.15,266.13c.2-.52,22,6,24,6.26s18.39,2.67,19.62,3.8,4.22,10.48,5.35,12.64,8.21,15.31,7.7,16.23-21.78-5.44-25.17-5.75-18.9-3-20.85-5.45-4.11-12.53-6.37-17.25S245.15,266.13,245.15,266.13Z" style="fill:#fff;opacity:0.30000000000000004"></path><path d="M261.89,231.92c-.41.41-12.84,22.7-12.84,22.7s7.29-3.28,7.6-5.24.72-4.31.72-4.31,6.58-.41,6.58-2.47S261.89,231.92,261.89,231.92Z" style="fill:#fff;opacity:0.6000000000000001"></path><path d="M276.58,227.34c.46-1.15,8.22,2.42,10.79,2.53S305.45,232,307,232.43s4.62,4.73,4.21,4.83-4.62-1-7.5-.51-6.37,5.75-7.7,4.93-3.5-4.93-5.55-5.24-4.11,2.16-5.55,1.13-4.21-1.82-5-3S276.58,227.34,276.58,227.34Z" style="fill:#fff;opacity:0.6000000000000001"></path><path d="M265,223.4c.14.93,9.61,21.16,10.33,20.85s.51-2.36,0-3.08-5.94-17.08-6.78-18.29C267,220.67,264.61,220.62,265,223.4Z" style="fill:#fff;opacity:0.6000000000000001"></path><path d="M285.48,300c.83-1,9.15,2.68,12.12,2.05s10.89-18.08,11.58-19.45,2.67-3.22,2.87-1.57-8.76,20.82-9.17,21.71-3.49,4.1-4.52,4.38-4.66-.89-6.1-1.51S284.17,301.67,285.48,300Z" style="fill:#fff;opacity:0.6000000000000001"></path><path d="M256.5,292.78c.83.34,8.58-11.45,10.22-13.91s7.34-10.64,7.7-13.1,5.09-15.56,5.6-15.92,18,5.13,21,6.42,13.81,4.67,16.07,4.72,5.6,0,5.55-.82-14-4.06-17.41-5.55-25.27-8.57-26-8.06-7,16.1-7.55,17.78S265.55,273.78,265,275,255.21,292.27,256.5,292.78Z" style="fill:#fff;opacity:0.30000000000000004"></path><path d="M232.77,328.22c-.57-.23-22.39,3.11-23.86,3.09s-16.74,3.17-17,3.22-7.84,8.75-8.48,9.39-9.91,12.39-10.24,13.44,6.29,18.24,7,22,8.49,24.08,9.59,24.7,19.82-2.56,22.44-2.83,20.3-.84,21.41-1.51,7.48-14.07,9.18-16.87,8.61-9.9,8-11.8-5.35-15.32-7.11-18.43S234.25,328.8,232.77,328.22Z" style="fill:#fff;opacity:0.2"></path><path d="M247.46,371.5c-.11-.48-22.77,3.55-24.61,3.56s-16.5,0-17.72.85-5,8.67-6.3,10.42-9.17,12.4-8.84,13.28,19.83-2,22.85-1.86,17-.21,19-2.13,5.2-10.48,7.79-14.35A123.61,123.61,0,0,1,247.46,371.5Z" style="fill:#fff;opacity:0.30000000000000004"></path><path d="M234.41,340.43c.3.42,8.39,21.58,8.39,21.58s-6-3.81-6-5.57-.09-3.88-.09-3.88-5.72-1.2-5.46-3S234.41,340.43,234.41,340.43Z" style="fill:#fff;opacity:0.6000000000000001"></path><path d="M224.05,332.57c-.39-1-7.74,1.88-10.14,1.89s-16.94,1.32-18.39,1.63S180.69,350.65,182,350.52a14.41,14.41,0,0,0,4.13-1.39c1.81-1,6.19-3.9,7.89-5,2.11-1.38,4.51-3.22,5-3.12,2.67.55,5.25,4.34,6.52,3.66s3.41-4.26,5.34-4.47,3.76,2.05,5.14,1.18,4-1.48,4.79-2.51S224.05,332.57,224.05,332.57Z" style="fill:#fff;opacity:0.6000000000000001"></path><path d="M205,397.27c-.59-1-8.37,1.19-10.91.26s-7.26-17.27-7.69-18.56-1.94-3.17-2.33-1.75,5,19.41,5.3,20.24,2.55,4.05,3.42,4.43,4.2-.19,5.54-.55S206,398.88,205,397.27Z" style="fill:#fff;opacity:0.6000000000000001"></path><path d="M216.14,356.84c-.61.75,14.1,39.56,15.71,38.78s-6.8-22-7.64-24S217.36,355.34,216.14,356.84Z" style="fill:#fff;opacity:0.6000000000000001"></path><path d="M177.07,360.28c1.77-.16,36.21-3,36.93-3.5s18-24.44,18-25.35-1.68-.49-2.19.27-16.22,20.94-17.29,21.48-33,5.36-33.84,5.34S176,360.38,177.07,360.28Z" style="fill:#fff;opacity:0.30000000000000004"></path><path d="M233.37,174.51c-.41-.48-22.07-8.2-23.4-8.95S193,160.2,192.75,160.1s-11.5,4.15-12.41,4.42-15.21,6.47-16,7.27-3.24,19.84-4.43,23.68-4.12,26.29-3.41,27.4,19.44,7.44,22,8.49,19,9.27,20.38,9.2,13.83-9.21,16.76-10.94,12.79-4.82,13.14-6.88,2.67-16.69,2.6-20.41S234.44,175.78,233.37,174.51Z" style="fill:#fff;opacity:0.2"></path><path d="M225.46,221.48c.13-.5-22.64-8-24.34-8.9s-15.13-8.15-16.67-8-8.9,5.47-10.93,6.45-14.54,6.84-14.67,7.81,19.18,8,21.87,9.59,15.68,8.2,18.49,7.45,10-7,14.24-9.32A127.56,127.56,0,0,1,225.46,221.48Z" style="fill:#fff;opacity:0.30000000000000004"></path><path d="M228.84,186.53c.07.53-3,23.94-3,23.94s-3.61-6.46-2.76-8.08,1.84-3.6,1.84-3.6-4.66-3.93-3.53-5.46S228.84,186.53,228.84,186.53Z" style="fill:#fff;opacity:0.6000000000000001"></path><path d="M223.22,174.2c.16-1.15-8-2.1-10.23-3.28s-16.19-7.16-17.67-7.59-20.8,6-19.58,6.52a14.53,14.53,0,0,0,4.47.76c2.17,0,7.61-.51,9.72-.69,2.62-.22,5.72-.72,6.12-.38,2.18,1.82,2.67,6.57,4.18,6.57s5.23-2.22,7.1-1.46,2.44,3.74,4.13,3.63,4.39.61,5.64.06S223.22,174.2,223.22,174.2Z" style="fill:#fff;opacity:0.6000000000000001"></path><path d="M173.79,224.13c0-1.22-8.28-3-10.14-5.15s1.87-19.43,2.12-20.83-.21-3.86-1.27-2.75-5,20.29-5.14,21.18.33,5,.94,5.75,3.95,1.9,5.36,2.24S173.86,226.08,173.79,224.13Z" style="fill:#fff;opacity:0.6000000000000001"></path><path d="M204,192.55c-.94.39-6.62,43.25-4.77,43.34s4.62-23.52,4.84-25.76S205.83,191.78,204,192.55Z" style="fill:#fff;opacity:0.6000000000000001"></path><path d="M166.44,176.4c1.7.72,34.7,15.13,35.6,15s28.57-13.53,29-14.38-1.31-1.28-2.15-.83-25.23,11.18-26.47,11.15S169.51,176,168.75,175.56,165.4,176,166.44,176.4Z" style="fill:#fff;opacity:0.30000000000000004"></path><path d="M343.43,304.56c-.41-.49-22.07-8.21-23.41-9s-16.92-5.36-17.21-5.46-11.5,4.15-12.42,4.42-15.2,6.47-16,7.27-3.24,19.84-4.43,23.68-4.12,26.29-3.41,27.41,19.44,7.43,22,8.48,19,9.27,20.38,9.2,13.82-9.21,16.76-10.93,12.79-4.83,13.14-6.89,2.67-16.69,2.59-20.41S344.5,305.82,343.43,304.56Z" style="fill:#fff;opacity:0.2"></path><path d="M335.52,351.52c.13-.5-22.65-8-24.34-8.9s-15.13-8.15-16.67-8-8.9,5.46-10.93,6.44-14.54,6.84-14.67,7.81,19.18,8,21.87,9.59,15.68,8.2,18.49,7.45,10-7.05,14.24-9.31A125.85,125.85,0,0,1,335.52,351.52Z" style="fill:#fff;opacity:0.30000000000000004"></path><path d="M338.89,316.57c.08.53-3,23.94-3,23.94s-3.61-6.46-2.77-8.08,1.85-3.6,1.85-3.6-4.66-3.93-3.53-5.45S338.89,316.57,338.89,316.57Z" style="fill:#fff;opacity:0.6000000000000001"></path><path d="M333.28,304.24c.16-1.15-8-2.1-10.23-3.28s-16.19-7.16-17.67-7.59-20.8,6-19.58,6.53a15.18,15.18,0,0,0,4.47.76c2.16,0,7.61-.52,9.72-.69,2.62-.22,5.72-.73,6.12-.39,2.18,1.82,2.67,6.57,4.18,6.57s5.23-2.22,7.1-1.46,2.44,3.74,4.13,3.63,4.39.61,5.63.06A73.47,73.47,0,0,0,333.28,304.24Z" style="fill:#fff;opacity:0.6000000000000001"></path><path d="M283.85,354.17c-.05-1.22-8.28-3-10.14-5.15s1.87-19.43,2.12-20.83-.22-3.86-1.27-2.75-5,20.29-5.15,21.18.33,5,.95,5.75,3.95,1.9,5.35,2.24S283.92,356.12,283.85,354.17Z" style="fill:#fff;opacity:0.6000000000000001"></path><path d="M314,322.59c-.93.39-6.62,43.25-4.76,43.34s4.62-23.52,4.84-25.75S315.89,321.82,314,322.59Z" style="fill:#fff;opacity:0.6000000000000001"></path><path d="M276.5,306.44c1.7.73,34.69,15.13,35.59,15s28.57-13.53,29-14.38-1.3-1.28-2.14-.83-25.23,11.18-26.47,11.15S279.56,306,278.8,305.6,275.46,306,276.5,306.44Z" style="fill:#fff;opacity:0.30000000000000004"></path><polygon points="346.08 75.25 308.55 456.85 191.44 468.07 346.6 468.07 384.01 75.25 346.08 75.25" style="opacity:0.1"></polygon><g style="opacity:0.5"><polygon points="140.73 75.25 171.88 75.25 206.06 468.07 177.82 468.07 140.73 75.25" style="fill:#fff"></polygon><polygon points="181.77 75.25 193.88 75.25 225.48 468.07 215.66 468.07 181.77 75.25" style="fill:#fff"></polygon></g></g><g id="freepik--Table--inject-61"><path d="M35.24,468.07c137.59-.61,291.93-.62,429.52,0-137.59.62-291.93.61-429.52,0Z" style="fill:#263238"></path></g></svg>
